<svg width="217" height="57" viewBox="0 0 217 57" fill="none" xmlns="http://www.w3.org/2000/svg">
<path d="M188.39 56.99H28.32C12.85 56.99 0.26001 44.3999 0.26001 28.9299C0.26001 13.4599 12.85 0.870117 28.32 0.870117H188.39C203.86 0.870117 216.45 13.4599 216.45 28.9299C216.45 44.4099 203.86 56.99 188.39 56.99ZM28.32 2.6001C13.8 2.6001 1.98001 14.4199 1.98001 28.9399C1.98001 43.4599 13.8 55.28 28.32 55.28H188.39C202.91 55.28 214.73 43.4599 214.73 28.9399C214.73 14.4199 202.91 2.6001 188.39 2.6001H28.32Z" fill="url(#paint0_linear_17_189)"/>
<path d="M189.11 48.9199H27.6C16.56 48.9199 7.62 39.9699 7.62 28.9399C7.62 17.8999 16.57 8.95996 27.6 8.95996H189.11C200.15 8.95996 209.09 17.9099 209.09 28.9399C209.1 39.9699 200.15 48.9199 189.11 48.9199Z" fill="url(#paint1_linear_17_189)"/>
<path opacity="0.2" d="M189.11 45.6101H27.6C17.12 45.6101 8.54001 37.54 7.70001 27.28C7.66001 27.83 7.62 28.3799 7.62 28.9299C7.62 39.9699 16.57 48.9099 27.6 48.9099H189.11C200.15 48.9099 209.09 39.9599 209.09 28.9299C209.09 28.3699 209.05 27.82 209.01 27.28C208.17 37.54 199.59 45.6101 189.11 45.6101Z" fill="black"/>
<path opacity="0.3" d="M27.6 12.26H189.11C199.59 12.26 208.17 20.3301 209.01 30.5901C209.05 30.0401 209.09 29.4899 209.09 28.9399C209.09 17.8999 200.14 8.95996 189.11 8.95996H27.6C16.56 8.95996 7.62 17.9099 7.62 28.9399C7.62 29.4999 7.66001 30.0501 7.70001 30.5901C8.55001 20.3301 17.13 12.26 27.6 12.26Z" fill="white"/>
<path d="M181.61 35.26C181.48 35.26 181.36 35.2299 181.24 35.1699C180.96 35.0299 180.79 34.7499 180.79 34.4399V21.46C180.79 21.15 180.96 20.87 181.24 20.73C181.52 20.59 181.84 20.6201 182.09 20.8001L190.83 27.29C191.04 27.44 191.16 27.6899 191.16 27.9399C191.16 28.1999 191.04 28.4401 190.83 28.5901L182.09 35.0801C181.95 35.2101 181.78 35.26 181.61 35.26ZM182.42 23.0901V32.8201L188.98 27.95L182.42 23.0901Z" fill="white"/>
<defs>
<linearGradient id="paint0_linear_17_189" x1="0.26861" y1="28.9354" x2="216.448" y2="28.9354" gradientUnits="userSpaceOnUse">
<stop stop-color="#0091FF"/>
<stop offset="0.2658" stop-color="#17AAEB"/>
<stop offset="0.8282" stop-color="#53EAB7"/>
<stop offset="1" stop-color="#66FFA6"/>
</linearGradient>
<linearGradient id="paint1_linear_17_189" x1="7.6202" y1="28.9352" x2="209.096" y2="28.9352" gradientUnits="userSpaceOnUse">
<stop stop-color="#0091FF"/>
<stop offset="0.2658" stop-color="#17AAEB"/>
<stop offset="0.8282" stop-color="#53EAB7"/>
<stop offset="1" stop-color="#66FFA6"/>
</linearGradient>
</defs>
</svg>
