<svg width="217" height="57" viewBox="0 0 217 57" fill="none" xmlns="http://www.w3.org/2000/svg">
<path d="M188.67 56.99H28.6001C13.1301 56.99 0.540039 44.3999 0.540039 28.9299C0.540039 13.4599 13.1301 0.870117 28.6001 0.870117H188.67C204.14 0.870117 216.73 13.4599 216.73 28.9299C216.72 44.4099 204.14 56.99 188.67 56.99ZM28.6001 2.6001C14.0801 2.6001 2.26004 14.4199 2.26004 28.9399C2.26004 43.4599 14.0801 55.28 28.6001 55.28H188.67C203.19 55.28 215.01 43.4599 215.01 28.9399C215.01 14.4199 203.19 2.6001 188.67 2.6001H28.6001Z" fill="url(#paint0_linear_17_180)"/>
<path d="M189.39 48.9199H27.88C16.84 48.9199 7.90002 39.9699 7.90002 28.9399C7.90002 17.8999 16.85 8.95996 27.88 8.95996H189.39C200.43 8.95996 209.37 17.9099 209.37 28.9399C209.37 39.9699 200.42 48.9199 189.39 48.9199Z" fill="url(#paint1_linear_17_180)"/>
<path opacity="0.2" d="M189.39 45.6101H27.88C17.4 45.6101 8.82003 37.54 7.98003 27.28C7.94003 27.83 7.90002 28.3799 7.90002 28.9299C7.90002 39.9699 16.85 48.9099 27.88 48.9099H189.39C200.43 48.9099 209.37 39.9599 209.37 28.9299C209.37 28.3699 209.33 27.82 209.29 27.28C208.44 37.54 199.87 45.6101 189.39 45.6101Z" fill="black"/>
<path opacity="0.3" d="M27.88 12.26H189.39C199.87 12.26 208.45 20.3301 209.29 30.5901C209.33 30.0401 209.37 29.4899 209.37 28.9399C209.37 17.8999 200.42 8.95996 189.39 8.95996H27.88C16.84 8.95996 7.90002 17.9099 7.90002 28.9399C7.90002 29.4999 7.94003 30.0501 7.98003 30.5901C8.82003 20.3301 17.4 12.26 27.88 12.26Z" fill="white"/>
<path d="M181.88 35.26C181.75 35.26 181.63 35.2299 181.51 35.1699C181.23 35.0299 181.06 34.7499 181.06 34.4399V21.46C181.06 21.15 181.23 20.87 181.51 20.73C181.79 20.59 182.11 20.6201 182.36 20.8001L191.1 27.29C191.31 27.44 191.43 27.6899 191.43 27.9399C191.43 28.1999 191.31 28.4401 191.1 28.5901L182.36 35.0801C182.23 35.2101 182.06 35.26 181.88 35.26ZM182.7 23.0901V32.8201L189.26 27.95L182.7 23.0901Z" fill="white"/>
<defs>
<linearGradient id="paint0_linear_17_180" x1="0.543439" y1="28.9354" x2="216.723" y2="28.9354" gradientUnits="userSpaceOnUse">
<stop stop-color="#4349F0"/>
<stop offset="0.1593" stop-color="#3B5CF2"/>
<stop offset="0.4841" stop-color="#268FF7"/>
<stop offset="0.942" stop-color="#04DFFE"/>
<stop offset="1" stop-color="#00EAFF"/>
</linearGradient>
<linearGradient id="paint1_linear_17_180" x1="7.89492" y1="28.9352" x2="209.371" y2="28.9352" gradientUnits="userSpaceOnUse">
<stop stop-color="#4349F0"/>
<stop offset="0.1593" stop-color="#3B5CF2"/>
<stop offset="0.4841" stop-color="#268FF7"/>
<stop offset="0.942" stop-color="#04DFFE"/>
<stop offset="1" stop-color="#00EAFF"/>
</linearGradient>
</defs>
</svg>
