<svg width="20" height="20" viewBox="0 0 20 20" fill="none" xmlns="http://www.w3.org/2000/svg">
<path d="M10 0C7.34783 0 4.80429 1.05358 2.92892 2.92894C1.05356 4.8043 -9.09189e-07 7.34784 -9.09189e-07 10C-0.00796547 11.3154 0.245268 12.6194 0.744994 13.8362C1.24472 15.0531 1.98099 16.1587 2.91116 17.0888C3.84134 18.019 4.9469 18.7553 6.16376 19.255C7.38061 19.7547 8.68456 20.008 10 20C11.3154 20.008 12.6194 19.7547 13.8362 19.255C15.0531 18.7553 16.1587 18.019 17.0888 17.0888C18.019 16.1587 18.7553 15.0531 19.255 13.8362C19.7547 12.6194 20.008 11.3154 20 10C20 7.34784 18.9464 4.8043 17.0711 2.92894C15.1957 1.05358 12.6522 0 10 0V0ZM9.32999 1.52V4.7L6.98001 4.44C7.45001 3.13 8.44001 1.78 9.32001 1.52H9.32999ZM9.32999 6.04001V9.33H6C6.03135 8.11374 6.20588 6.90541 6.51999 5.73L9.32999 6.04001ZM6.72 2.04001L5.61999 4.16L4.17001 3.66C4.91252 2.96166 5.77233 2.39972 6.70999 2L6.72 2.04001ZM3.20999 4.7L5.20999 5.46001C4.87358 6.74116 4.6824 8.0561 4.64001 9.38H1.35001C1.46456 7.6534 2.11081 6.0046 3.20001 4.66L3.20999 4.7ZM1.36999 10.7H4.67999C4.72387 12.0172 4.91507 13.3253 5.25 14.6L3.20001 15.36C2.13619 14.0246 1.49544 12.4019 1.35998 10.7H1.36999ZM4.17001 16.4L5.61999 15.9L6.72 18.02C5.77743 17.6359 4.91062 17.0874 4.16 16.4H4.17001ZM9.32001 18.51C8.18945 17.8739 7.35039 16.8232 6.98001 15.58L9.32001 15.33V18.51ZM9.32001 13.98L6.53 14.29C6.21863 13.1174 6.04414 11.9127 6.01001 10.7H9.32001V13.98ZM18.64 9.33H15.32C15.2769 8.00945 15.0857 6.69791 14.75 5.42L16.8 4.66C17.8635 5.99937 18.5041 7.62514 18.64 9.33V9.33ZM15.84 3.62L14.39 4.12L13.28 2C14.2208 2.38741 15.0871 2.93558 15.84 3.62V3.62ZM10.68 1.48C11.8063 2.161 12.6482 3.22662 13.05 4.48L10.68 4.73V1.48ZM10.68 6.2C10.68 6.14 10.68 6.09001 10.68 6.04001L13.47 5.73C13.7855 6.90513 13.96 8.11363 13.99 9.33H13.8H10.87C10.71 9.33 10.67 9.33 10.67 9.13C10.67 8.22 10.66 7.22 10.66 6.22L10.68 6.2ZM14 10.69C13.9694 11.9063 13.7949 13.1147 13.48 14.29L10.7 13.99V10.69H14ZM10.69 18.55V15.33L13.06 15.58C12.646 16.825 11.7976 17.8793 10.67 18.55H10.69ZM13.3 18.02L14.41 15.9L15.86 16.4C15.1027 17.0885 14.2292 17.6371 13.28 18.02H13.3ZM16.82 15.36L14.77 14.6C15.1071 13.3224 15.2983 12.0107 15.34 10.69H18.65C18.5191 12.3978 17.8741 14.0259 16.8 15.36H16.82Z" fill="black"/>
</svg>
