<svg width="202" height="40" viewBox="0 0 202 40" fill="none" xmlns="http://www.w3.org/2000/svg">
<g clip-path="url(#clip0_160_936)">
<path d="M49.6845 6.60108H56.7017C61.441 6.60108 65.0794 8.24798 65.0794 13.314C65.0794 18.192 61.4097 20.3894 56.8181 20.3894H53.9584V27.9974H49.6845V6.60108ZM56.5317 16.9971C59.4764 16.9971 60.8906 15.753 60.8906 13.3006C60.8906 10.8481 59.3287 9.97991 56.384 9.97991H53.9584V16.9971H56.5317Z" fill="white"/>
<path d="M68.2524 6.60108H81.365V10.1544H72.5263V15.0772H80.0358V18.6575H72.5263V24.3769H81.6827V27.9571H68.2569L68.2524 6.60108Z" fill="white"/>
<path d="M96.9613 27.9705L92.5711 19.8837H89.5771V27.9705H85.3032V6.60108H92.7545C97.2298 6.60108 100.783 8.15847 100.783 13.0678C100.783 16.2766 99.1676 18.2681 96.7107 19.2213L101.705 27.9705H96.9613ZM89.5771 16.5049H92.3518C95.0951 16.5049 96.5943 15.3502 96.5943 13.0678C96.5943 10.7855 95.0951 9.97991 92.3518 9.97991H89.5771V16.5049Z" fill="white"/>
<path d="M110.36 6.71744H116.8C121.535 6.71744 124.914 8.33301 124.914 13.126C124.914 17.7758 121.535 19.915 116.917 19.915H113.708V27.9705H110.36V6.71744ZM116.599 17.2299C120.004 17.2299 121.62 15.9275 121.62 13.126C121.62 10.3245 119.861 9.4026 116.482 9.4026H113.708V17.2299H116.599Z" fill="white"/>
<path d="M128.064 12.0878H130.781L131.041 14.9475H131.126C132.253 12.8978 133.927 11.685 135.632 11.685C136.248 11.6581 136.861 11.7761 137.422 12.0296L136.818 14.9161C136.307 14.7406 135.77 14.6528 135.229 14.6566C133.927 14.6566 132.37 15.5516 131.358 18.0667V27.9705H128.064V12.0878Z" fill="white"/>
<path d="M137.736 20.0582C137.736 14.7461 141.289 11.685 145.214 11.685C149.139 11.685 152.678 14.7461 152.678 20.0582C152.678 25.3704 149.125 28.3464 145.196 28.3464C141.267 28.3464 137.736 25.3122 137.736 20.0582ZM149.286 20.0582C149.286 16.6794 147.729 14.4283 145.214 14.4283C142.699 14.4283 141.186 16.666 141.186 20.0582C141.186 23.4505 142.748 25.6299 145.214 25.6299C147.68 25.6299 149.286 23.4057 149.286 20.0582Z" fill="white"/>
<path d="M152.003 34.3836L152.607 31.8998C153.067 32.0474 153.543 32.1347 154.026 32.1594C155.525 32.1594 155.928 31.0898 155.928 29.2146V12.0878H159.253V29.1565C159.253 32.4771 157.982 34.8132 154.455 34.8132C153.618 34.8262 152.786 34.6804 152.003 34.3836ZM155.467 7.14706C155.467 5.96559 156.362 5.18689 157.574 5.18689C158.787 5.18689 159.714 5.96559 159.714 7.14706C159.714 8.32853 158.787 9.11171 157.574 9.11171C157.305 9.13143 157.034 9.09522 156.779 9.00536C156.523 8.91549 156.29 8.7739 156.092 8.58947C155.894 8.40503 155.736 8.18171 155.629 7.93351C155.521 7.68531 155.466 7.41757 155.467 7.14706Z" fill="white"/>
<path d="M162.399 20.0582C162.399 14.8893 165.921 11.685 169.649 11.685C173.864 11.685 176.115 14.7147 176.115 19.2213C176.122 19.7826 176.074 20.3431 175.972 20.8951H165.657C165.916 23.9293 167.823 25.7463 170.58 25.7463C171.931 25.7387 173.25 25.3272 174.366 24.5648L175.52 26.6727C173.936 27.7514 172.067 28.334 170.15 28.3464C165.836 28.3464 162.399 25.2854 162.399 20.0582ZM173.265 18.6127C173.265 15.8694 172.025 14.2806 169.716 14.2806C167.72 14.2806 165.961 15.8112 165.643 18.6127H173.265Z" fill="white"/>
<path d="M178.022 20.0582C178.022 14.7461 181.692 11.685 185.876 11.685C187.6 11.6804 189.262 12.3297 190.526 13.5019L188.879 15.668C188.123 14.8992 187.097 14.4546 186.019 14.4283C183.365 14.4283 181.459 16.666 181.459 20.0582C181.459 23.4505 183.276 25.6299 185.934 25.6299C187.223 25.5757 188.451 25.065 189.398 24.1889L190.741 26.3818C189.326 27.6455 187.496 28.3448 185.599 28.3464C181.32 28.3464 178.022 25.3122 178.022 20.0582Z" fill="white"/>
<path d="M193.587 22.7747V14.7461H191.278V12.2623L193.73 12.0878L194.106 7.69752H196.908V12.0878H201.038V14.7461H196.908V22.8016C196.908 24.708 197.574 25.6881 199.221 25.6881C199.807 25.671 200.384 25.5435 200.922 25.3122L201.531 27.7691C200.523 28.1238 199.466 28.3186 198.398 28.3464C194.831 28.3464 193.587 26.1222 193.587 22.7747Z" fill="white"/>
<path fill-rule="evenodd" clip-rule="evenodd" d="M36.0618 18.0309C36.0618 27.9891 27.9891 36.0618 18.0309 36.0618C8.0727 36.0618 0 27.9891 0 18.0309C0 8.0727 8.0727 0 18.0309 0C27.9891 0 36.0618 8.0727 36.0618 18.0309Z" fill="url(#paint0_linear_160_936)"/>
<path opacity="0.3" d="M0.0715942 16.2944C2.63994 14.2877 5.50981 12.7002 8.57462 11.5909C13.2379 9.88137 18.6306 9.11609 22.8955 11.3537C23.9138 11.8832 24.8042 12.6285 25.5046 13.5377C26.2193 14.3326 26.7401 15.2823 27.0262 16.3123C27.2687 17.3869 27.2946 18.4991 27.1023 19.5838C26.9158 20.6497 26.5055 21.664 25.8984 22.5598C24.6137 24.4373 22.812 25.9017 20.7116 26.7755C18.9191 27.5577 17.0524 28.1574 15.1398 28.5656V15.7932C15.144 15.5047 15.0912 15.2183 14.9844 14.9503C14.8777 14.6823 14.7191 14.438 14.5178 14.2313C14.1233 13.8374 13.6046 13.5923 13.0499 13.5377H11.9311V39.9865H11.9982C12.4048 40.0086 12.8116 39.947 13.1934 39.8053C13.5752 39.6636 13.9237 39.445 14.2175 39.163C14.5113 38.881 14.7439 38.5416 14.901 38.166C15.0582 37.7903 15.1364 37.3863 15.1309 36.9791V32.4815C17.4804 31.855 20.2864 31.0942 22.3227 30.0022C23.5837 29.3327 24.7576 28.5105 25.8178 27.5542C26.3604 27.0652 26.8619 26.5323 27.3171 25.961C27.7377 25.465 28.1011 24.923 28.4001 24.3454C29.092 23.1814 29.4741 21.8594 29.51 20.5057C29.6308 19.0467 29.6263 17.0776 29.1877 15.6545C28.7492 14.2313 28.3151 12.8888 27.3215 11.8326C26.314 10.7919 25.0925 9.98264 23.7413 9.46069C22.4697 8.92841 21.131 8.57304 19.7628 8.40452C18.4163 8.25676 17.0571 8.26577 15.7127 8.43137C13.0993 8.79057 10.5526 9.53089 8.15394 10.6287C5.23763 11.9176 2.53246 13.6391 0.129772 15.735L0.0715942 16.2944Z" fill="white"/>
<path d="M28.7402 14.6296C28.3109 13.2716 27.5831 12.0268 26.61 10.9868C25.6397 9.9849 24.4641 9.20478 23.164 8.69989C21.934 8.18484 20.6389 7.84149 19.3153 7.67953C18.0179 7.53721 16.7085 7.54472 15.4128 7.7019C9.6065 8.50329 4.23807 11.2332 0.170066 15.4531L0.116364 15.9722C2.55092 13.6961 5.40562 11.916 8.52093 10.7317C12.9962 9.08476 18.2188 8.34634 22.3316 10.5034C23.6617 11.2731 24.7315 12.4226 25.4037 13.8045C26.0759 15.1864 26.3198 16.7376 26.1043 18.2591C25.9705 19.2209 25.6185 20.1394 25.075 20.9442C23.8711 22.7925 22.1258 23.7055 20.0537 24.6453C18.184 25.4186 16.2321 25.9756 14.2359 26.3056V15.7887C14.2495 15.4802 14.2005 15.1721 14.0919 14.883C13.9832 14.5939 13.8171 14.3298 13.6037 14.1067C13.3902 13.8835 13.1337 13.7059 12.8497 13.5846C12.5657 13.4633 12.2601 13.4007 11.9512 13.4007C11.6424 13.4007 11.3368 13.4633 11.0528 13.5846C10.7688 13.7059 10.5123 13.8835 10.2988 14.1067C10.0853 14.3298 9.91922 14.5939 9.81057 14.883C9.70191 15.1721 9.65294 15.4802 9.6666 15.7887V37.6639C9.65294 37.9724 9.70191 38.2805 9.81057 38.5696C9.91922 38.8587 10.0853 39.1228 10.2988 39.3459C10.5123 39.5691 10.7688 39.7467 11.0528 39.868C11.3368 39.9893 11.6424 40.0519 11.9512 40.0519C12.2601 40.0519 12.5657 39.9893 12.8497 39.868C13.1337 39.7467 13.3902 39.5691 13.6037 39.3459C13.8171 39.1228 13.9832 38.8587 14.0919 38.5696C14.2005 38.2805 14.2495 37.9724 14.2359 37.6639V31.0673C16.6122 30.4318 19.642 29.6621 21.7901 28.5119C23.0061 27.8651 24.1392 27.0732 25.1645 26.1535C25.687 25.6785 26.1704 25.1621 26.61 24.6095C27.044 24.0657 27.4359 23.4897 27.7825 22.8865C28.5102 21.6444 28.9677 20.2628 29.1251 18.8319C29.2856 17.4196 29.1546 15.9893 28.7402 14.6296V14.6296Z" fill="url(#paint1_linear_160_936)"/>
</g>
<defs>
<linearGradient id="paint0_linear_160_936" x1="6.09085" y1="29.9709" x2="29.1251" y2="6.93668" gradientUnits="userSpaceOnUse">
<stop stop-color="#FFB200"/>
<stop offset="1" stop-color="#FC210D"/>
</linearGradient>
<linearGradient id="paint1_linear_160_936" x1="5.86709" y1="38.5142" x2="12.5621" y2="22.6493" gradientUnits="userSpaceOnUse">
<stop stop-color="#FFB200"/>
<stop offset="0.47" stop-color="white"/>
</linearGradient>
<clipPath id="clip0_160_936">
<rect width="201.53" height="40" fill="white"/>
</clipPath>
</defs>
</svg>
