<svg width="234" height="40" viewBox="0 0 234 40" fill="none" xmlns="http://www.w3.org/2000/svg">
<g clip-path="url(#clip0_2050_4757)">
<path d="M18.0179 36.0629C27.9689 36.0629 36.0357 27.9899 36.0357 18.0314C36.0357 8.07295 27.9689 0 18.0179 0C8.06688 0 0 8.07295 0 18.0314C0 27.9899 8.06688 36.0629 18.0179 36.0629Z" fill="url(#paint0_linear_2050_4757)"/>
<path d="M18.0179 36.0629C27.9689 36.0629 36.0357 27.9899 36.0357 18.0314C36.0357 8.07295 27.9689 0 18.0179 0C8.06688 0 0 8.07295 0 18.0314C0 27.9899 8.06688 36.0629 18.0179 36.0629Z" fill="url(#paint1_linear_2050_4757)"/>
<path opacity="0.3" d="M0.0844727 16.2981C2.646 14.2884 5.51045 12.699 8.57062 11.5894C13.2282 9.88243 18.604 9.11616 22.8761 11.3569C23.8928 11.8854 24.7815 12.6303 25.4795 13.5395C26.1946 14.3317 26.7153 15.2799 27.0004 16.3087C27.2415 17.3834 27.2666 18.4953 27.0743 19.5799C26.8917 20.6485 26.4811 21.6651 25.8703 22.5605C24.591 24.4418 22.7931 25.9106 20.6952 26.7882C18.9009 27.5553 17.0346 28.1413 15.124 28.5375V15.7908C15.1281 15.5026 15.0752 15.2165 14.9682 14.9489C14.8613 14.6813 14.7025 14.4376 14.5009 14.2318C14.1128 13.8409 13.6016 13.5963 13.054 13.5395H11.9397V39.9895H12.0031C12.4087 40.0089 12.8141 39.9452 13.1942 39.8022C13.5743 39.6591 13.9212 39.4398 14.2135 39.1577C14.5058 38.8755 14.7373 38.5366 14.8939 38.1616C15.0505 37.7866 15.1288 37.3835 15.124 36.9772V32.4746C17.4739 31.851 20.2727 31.09 22.3111 29.9961C23.5707 29.3272 24.7431 28.5054 25.8017 27.5492C26.3451 27.0637 26.8467 26.5334 27.3014 25.9638C27.7127 25.4678 28.0669 24.9271 28.3575 24.352C29.0483 23.1888 29.4301 21.8679 29.4665 20.5153C29.6401 18.8917 29.5311 17.2503 29.1444 15.6639C28.7008 14.2476 28.273 12.8947 27.2803 11.8378C26.2758 10.7978 25.0579 9.98819 23.7105 9.46495C22.4417 8.93145 21.1054 8.57578 19.7394 8.40801C18.3957 8.24941 17.038 8.24941 15.6943 8.40801C13.0832 8.76709 10.539 9.5078 8.14288 10.6064C5.22983 11.8986 2.52614 13.6193 0.121438 15.7115L0.0844727 16.2981Z" fill="white"/>
<path d="M28.7166 14.6228C28.2931 13.2664 27.5714 12.0222 26.6043 10.9816C25.6347 9.97968 24.4602 9.19913 23.1613 8.69333C21.9281 8.1821 20.6313 7.84077 19.3063 7.67867C18.009 7.53416 16.6992 7.54303 15.4039 7.7051C12.884 8.04687 10.4284 8.75918 8.11646 9.81898C5.14925 11.1856 2.46291 13.0944 0.195358 15.4472L0.126709 15.9757C2.5593 13.6998 5.41106 11.9193 8.52308 10.7332C13.0223 9.0844 18.2185 8.34455 22.3269 10.506C23.6556 11.2767 24.7241 12.4267 25.3958 13.8088C26.0675 15.1909 26.3118 16.7421 26.0974 18.264C25.9541 19.2325 25.593 20.1559 25.0412 20.9644C23.8372 22.8088 22.0893 23.7231 20.0245 24.6637C18.1576 25.4349 16.2087 25.9899 14.2157 26.3178V15.8013C14.1875 15.2141 13.9345 14.6603 13.5093 14.2547C13.0841 13.8492 12.5192 13.6229 11.9318 13.6229C11.3444 13.6229 10.7795 13.8492 10.3543 14.2547C9.92904 14.6603 9.6761 15.2141 9.64788 15.8013V37.68C9.63301 37.9894 9.68106 38.2986 9.78913 38.5889C9.8972 38.8791 10.063 39.1444 10.2766 39.3686C10.4901 39.5929 10.7469 39.7714 11.0314 39.8933C11.316 40.0153 11.6223 40.0782 11.9318 40.0782C12.2413 40.0782 12.5476 40.0153 12.8321 39.8933C13.1167 39.7714 13.3735 39.5929 13.587 39.3686C13.8006 39.1444 13.9664 38.8791 14.0745 38.5889C14.1825 38.2986 14.2306 37.9894 14.2157 37.68V31.0688C16.592 30.4347 19.6179 29.6631 21.7672 28.511C22.981 27.8642 24.1123 27.0727 25.1363 26.154C25.6582 25.68 26.1404 25.1639 26.5779 24.6109C27.0129 24.0668 27.4065 23.491 27.7555 22.8881C28.4771 21.6514 28.9347 20.2783 29.0992 18.8557C29.2637 17.4331 29.1316 15.9918 28.7113 14.6228H28.7166Z" fill="url(#paint2_linear_2050_4757)"/>
<path d="M45.9266 6.53193H52.9764C57.729 6.53193 61.3939 8.18604 61.3939 13.2699C61.3939 18.1742 57.6973 20.3832 53.0925 20.3832H50.2251V28.009H45.9266V6.53193ZM52.7915 16.9851C55.7487 16.9851 57.1693 15.7379 57.1693 13.2858C57.1693 10.8337 55.585 9.94585 52.6437 9.94585H50.2092V17.0009L52.7915 16.9851Z" fill="#2A2B2B"/>
<path d="M64.99 6.53193H78.1919V10.1044H69.2833V15.072H76.8294V18.6709H69.2833V24.4207H78.4823V28.009H64.99V6.53193Z" fill="#2A2B2B"/>
<path d="M94.2348 28.009L89.8253 19.8811H86.8364V28.009H82.5432V6.53193H90.0313C94.5252 6.53193 98.095 8.11734 98.095 13.0374C98.095 16.2611 96.4738 18.264 94.0024 19.2205L99.0455 28.009H94.2348ZM86.8417 16.483H89.63C92.3865 16.483 93.8968 15.3204 93.8968 13.0268C93.8968 10.7333 92.3865 9.91943 89.63 9.91943H86.8417V16.483Z" fill="#2A2B2B"/>
<path d="M108.34 6.53193H115.416C120.168 6.53193 123.828 8.18604 123.828 13.2699C123.828 18.1742 120.131 20.3832 115.532 20.3832H112.659V28.009H108.34V6.53193ZM115.205 16.9851C118.162 16.9851 119.582 15.7379 119.582 13.2858C119.582 10.8337 117.998 9.94585 115.057 9.94585H112.622V17.0009L115.205 16.9851Z" fill="#2A2B2B"/>
<path d="M139.095 28.009L134.685 19.8811H131.696V28.009H127.403V6.53193H134.886C139.385 6.53193 142.95 8.11734 142.95 13.0374C142.95 16.2611 141.328 18.264 138.862 19.2205L143.879 28.009H139.095ZM131.702 16.483H134.485C137.241 16.483 138.751 15.3204 138.751 13.0268C138.751 10.7333 137.241 9.91943 134.485 9.91943H131.702V16.483Z" fill="#2A2B2B"/>
<path d="M145.822 17.1912C145.822 10.1942 149.741 6.125 155.428 6.125C161.115 6.125 165.055 10.2207 165.055 17.1912C165.055 24.1617 161.136 28.4265 155.449 28.4265C149.762 28.4265 145.822 24.1564 145.822 17.1912ZM160.651 17.1912C160.651 12.5724 158.617 9.79259 155.428 9.79259C152.238 9.79259 150.205 12.5512 150.205 17.1912C150.205 21.8312 152.238 24.7113 155.428 24.7113C158.617 24.7113 160.651 21.7783 160.651 17.1912Z" fill="#2A2B2B"/>
<path d="M165.292 24.6532L168.255 22.4759C169.094 24.0613 170.225 24.7113 171.423 24.7113C173.309 24.7113 174.296 23.6914 174.296 20.732V6.53193H178.589V21.0807C178.589 25.1183 176.556 28.4265 171.946 28.4265C168.83 28.4265 166.745 27.1476 165.292 24.6532Z" fill="#2A2B2B"/>
<path d="M183.484 6.53193H196.686V10.1044H187.762V15.072H195.308V18.6709H187.762V24.4207H196.961V28.009H183.484V6.53193Z" fill="#2A2B2B"/>
<path d="M199.966 17.3656C199.966 10.2788 204.518 6.125 209.946 6.125C211.127 6.13743 212.293 6.38816 213.375 6.86216C214.456 7.33617 215.431 8.02371 216.241 8.88362L213.981 11.6264C213.477 11.0758 212.868 10.6325 212.189 10.3228C211.51 10.0132 210.776 9.84365 210.031 9.8243C206.783 9.8243 204.349 12.6146 204.349 17.2229C204.349 21.8312 206.551 24.7166 209.946 24.7166C210.793 24.6999 211.627 24.5027 212.392 24.1382C213.157 23.7737 213.835 23.2503 214.382 22.6027L216.648 25.2715C215.816 26.2833 214.766 27.094 213.578 27.6431C212.389 28.1921 211.092 28.4653 209.783 28.4424C204.375 28.4265 199.966 24.5369 199.966 17.3656Z" fill="#2A2B2B"/>
<path d="M223.613 10.1044H217.577V6.53193H234V10.1044H227.895V28.009H223.602L223.613 10.1044Z" fill="#2A2B2B"/>
</g>
<defs>
<linearGradient id="paint0_linear_2050_4757" x1="6.08869" y1="29.9696" x2="29.1195" y2="6.95617" gradientUnits="userSpaceOnUse">
<stop stop-color="#FFB200"/>
<stop offset="1" stop-color="#FC210D"/>
</linearGradient>
<linearGradient id="paint1_linear_2050_4757" x1="6.08869" y1="29.9696" x2="29.1195" y2="6.95617" gradientUnits="userSpaceOnUse">
<stop stop-color="#FFB200"/>
<stop offset="1" stop-color="#FC210D"/>
</linearGradient>
<linearGradient id="paint2_linear_2050_4757" x1="5.86159" y1="38.515" x2="12.5608" y2="22.6539" gradientUnits="userSpaceOnUse">
<stop stop-color="#FFB200"/>
<stop offset="0.47" stop-color="white"/>
</linearGradient>
<clipPath id="clip0_2050_4757">
<rect width="234" height="40" fill="white"/>
</clipPath>
</defs>
</svg>
