<svg width="202" height="40" viewBox="0 0 202 40" fill="none" xmlns="http://www.w3.org/2000/svg">
<g clip-path="url(#clip0_146_201)">
<path d="M49.6844 6.60108H56.7016C61.4409 6.60108 65.0792 8.24798 65.0792 13.314C65.0792 18.192 61.4095 20.3894 56.8179 20.3894H53.9582V27.9974H49.6844V6.60108ZM56.5315 16.9971C59.4762 16.9971 60.8904 15.753 60.8904 13.3006C60.8904 10.8481 59.3285 9.97991 56.3838 9.97991H53.9582V16.9971H56.5315Z" fill="#2A2B2B"/>
<path d="M68.2522 6.60108H81.3647V10.1544H72.5261V15.0772H80.0356V18.6575H72.5261V24.3769H81.6825V27.9571H68.2567L68.2522 6.60108Z" fill="#2A2B2B"/>
<path d="M96.961 27.9705L92.5708 19.8837H89.5768V27.9705H85.303V6.60108H92.7543C97.2295 6.60108 100.783 8.15847 100.783 13.0678C100.783 16.2766 99.1673 18.2681 96.7104 19.2213L101.705 27.9705H96.961ZM89.5768 16.5049H92.3515C95.0948 16.5049 96.594 15.3502 96.594 13.0678C96.594 10.7855 95.0948 9.97991 92.3515 9.97991H89.5768V16.5049Z" fill="#2A2B2B"/>
<path d="M110.36 6.71744H116.8C121.535 6.71744 124.914 8.33301 124.914 13.126C124.914 17.7758 121.535 19.915 116.916 19.915H113.707V27.9705H110.36V6.71744ZM116.598 17.2299C120.004 17.2299 121.62 15.9275 121.62 13.126C121.62 10.3245 119.861 9.4026 116.482 9.4026H113.707V17.2299H116.598Z" fill="#2A2B2B"/>
<path d="M128.064 12.0878H130.781L131.04 14.9475H131.125C132.253 12.8978 133.927 11.685 135.632 11.685C136.247 11.6581 136.86 11.7761 137.422 12.0296L136.818 14.9161C136.307 14.7406 135.769 14.6528 135.229 14.6566C133.927 14.6566 132.369 15.5516 131.358 18.0667V27.9705H128.064V12.0878Z" fill="#2A2B2B"/>
<path d="M137.735 20.0582C137.735 14.7461 141.289 11.685 145.213 11.685C149.138 11.685 152.678 14.7461 152.678 20.0582C152.678 25.3704 149.125 28.3464 145.195 28.3464C141.266 28.3464 137.735 25.3122 137.735 20.0582ZM149.286 20.0582C149.286 16.6794 147.728 14.4283 145.213 14.4283C142.698 14.4283 141.186 16.666 141.186 20.0582C141.186 23.4505 142.747 25.6299 145.213 25.6299C147.679 25.6299 149.286 23.4057 149.286 20.0582Z" fill="#2A2B2B"/>
<path d="M152.002 34.3836L152.606 31.8998C153.066 32.0474 153.543 32.1347 154.025 32.1594C155.524 32.1594 155.927 31.0898 155.927 29.2146V12.0878H159.252V29.1565C159.252 32.4771 157.981 34.8132 154.455 34.8132C153.617 34.8262 152.785 34.6804 152.002 34.3836ZM155.466 7.14706C155.466 5.96559 156.361 5.18689 157.574 5.18689C158.787 5.18689 159.713 5.96559 159.713 7.14706C159.713 8.32853 158.787 9.11171 157.574 9.11171C157.304 9.13143 157.033 9.09522 156.778 9.00536C156.523 8.91549 156.289 8.7739 156.091 8.58947C155.893 8.40503 155.736 8.18171 155.628 7.93351C155.521 7.68531 155.465 7.41757 155.466 7.14706Z" fill="#2A2B2B"/>
<path d="M162.398 20.0582C162.398 14.8893 165.92 11.685 169.648 11.685C173.864 11.685 176.115 14.7147 176.115 19.2213C176.121 19.7826 176.073 20.3431 175.972 20.8951H165.656C165.916 23.9293 167.822 25.7463 170.579 25.7463C171.931 25.7387 173.249 25.3272 174.365 24.5648L175.52 26.6727C173.936 27.7514 172.066 28.334 170.149 28.3464C165.835 28.3464 162.398 25.2854 162.398 20.0582ZM173.264 18.6127C173.264 15.8694 172.025 14.2806 169.715 14.2806C167.719 14.2806 165.961 15.8112 165.643 18.6127H173.264Z" fill="#2A2B2B"/>
<path d="M178.021 20.0582C178.021 14.7461 181.691 11.685 185.876 11.685C187.6 11.6804 189.261 12.3297 190.525 13.5019L188.878 15.668C188.122 14.8992 187.097 14.4546 186.019 14.4283C183.365 14.4283 181.458 16.666 181.458 20.0582C181.458 23.4505 183.275 25.6299 185.934 25.6299C187.223 25.5757 188.45 25.065 189.398 24.1889L190.74 26.3818C189.325 27.6455 187.495 28.3448 185.598 28.3464C181.32 28.3464 178.021 25.3122 178.021 20.0582Z" fill="#2A2B2B"/>
<path d="M193.586 22.7747V14.7461H191.277V12.2623L193.73 12.0878L194.106 7.69752H196.907V12.0878H201.038V14.7461H196.907V22.8016C196.907 24.708 197.574 25.6881 199.221 25.6881C199.806 25.671 200.383 25.5435 200.921 25.3122L201.53 27.7691C200.522 28.1238 199.465 28.3186 198.397 28.3464C194.831 28.3464 193.586 26.1222 193.586 22.7747Z" fill="#2A2B2B"/>
<path fill-rule="evenodd" clip-rule="evenodd" d="M36.0617 18.0309C36.0617 27.9891 27.989 36.0618 18.0308 36.0618C8.07268 36.0618 0 27.9891 0 18.0309C0 8.0727 8.07268 0 18.0308 0C27.989 0 36.0617 8.0727 36.0617 18.0309Z" fill="url(#paint0_linear_146_201)"/>
<path opacity="0.3" d="M0.0716019 16.2944C2.63994 14.2877 5.5098 12.7002 8.5746 11.5909C13.2378 9.88137 18.6305 9.11609 22.8954 11.3537C23.9137 11.8832 24.8041 12.6285 25.5045 13.5377C26.2193 14.3326 26.7401 15.2823 27.0261 16.3123C27.2686 17.3869 27.2945 18.4991 27.1022 19.5838C26.9157 20.6497 26.5054 21.664 25.8983 22.5598C24.6137 24.4373 22.8119 25.9017 20.7115 26.7755C18.9191 27.5577 17.0524 28.1574 15.1398 28.5656V15.7932C15.144 15.5047 15.0911 15.2183 14.9844 14.9503C14.8777 14.6823 14.7191 14.438 14.5177 14.2313C14.1233 13.8374 13.6046 13.5923 13.0499 13.5377H11.931V39.9865H11.9982C12.4048 40.0086 12.8116 39.947 13.1934 39.8053C13.5751 39.6636 13.9237 39.445 14.2175 39.163C14.5112 38.881 14.7439 38.5416 14.901 38.166C15.0581 37.7903 15.1364 37.3863 15.1309 36.9791V32.4815C17.4804 31.855 20.2864 31.0942 22.3226 30.0022C23.5837 29.3327 24.7576 28.5105 25.8178 27.5542C26.3604 27.0652 26.8618 26.5323 27.317 25.961C27.7377 25.465 28.101 24.923 28.4 24.3454C29.0919 23.1814 29.474 21.8594 29.5099 20.5057C29.6307 19.0467 29.6262 17.0776 29.1877 15.6545C28.7491 14.2313 28.315 12.8888 27.3215 11.8326C26.314 10.7919 25.0924 9.98264 23.7413 9.46069C22.4696 8.92841 21.131 8.57304 19.7628 8.40452C18.4162 8.25676 17.0571 8.26577 15.7126 8.43137C13.0992 8.79057 10.5526 9.53089 8.15393 10.6287C5.23762 11.9176 2.53246 13.6391 0.12978 15.735L0.0716019 16.2944Z" fill="white"/>
<path d="M28.7401 14.6296C28.3109 13.2716 27.583 12.0268 26.6099 10.9868C25.6396 9.9849 24.4641 9.20478 23.164 8.69989C21.9339 8.18484 20.6389 7.84149 19.3152 7.67953C18.0179 7.53721 16.7084 7.54472 15.4128 7.7019C9.60646 8.50329 4.23805 11.2332 0.170059 15.4531L0.116356 15.9722C2.5509 13.6961 5.4056 11.916 8.5209 10.7317C12.9962 9.08476 18.2188 8.34634 22.3316 10.5034C23.6616 11.2731 24.7314 12.4226 25.4036 13.8045C26.0758 15.1864 26.3198 16.7376 26.1042 18.2591C25.9705 19.2209 25.6184 20.1394 25.0749 20.9442C23.871 22.7925 22.1257 23.7055 20.0536 24.6453C18.184 25.4186 16.232 25.9756 14.2358 26.3056V15.7887C14.2495 15.4802 14.2005 15.1721 14.0918 14.883C13.9832 14.5939 13.8171 14.3298 13.6036 14.1067C13.3901 13.8835 13.1336 13.7059 12.8496 13.5846C12.5656 13.4633 12.26 13.4007 11.9512 13.4007C11.6424 13.4007 11.3367 13.4633 11.0527 13.5846C10.7687 13.7059 10.5123 13.8835 10.2988 14.1067C10.0853 14.3298 9.91919 14.5939 9.81053 14.883C9.70188 15.1721 9.6529 15.4802 9.66656 15.7887V37.6639C9.6529 37.9724 9.70188 38.2805 9.81053 38.5696C9.91919 38.8587 10.0853 39.1228 10.2988 39.3459C10.5123 39.5691 10.7687 39.7467 11.0527 39.868C11.3367 39.9893 11.6424 40.0519 11.9512 40.0519C12.26 40.0519 12.5656 39.9893 12.8496 39.868C13.1336 39.7467 13.3901 39.5691 13.6036 39.3459C13.8171 39.1228 13.9832 38.8587 14.0918 38.5696C14.2005 38.2805 14.2495 37.9724 14.2358 37.6639V31.0673C16.6122 30.4318 19.6419 29.6621 21.79 28.5119C23.0061 27.8651 24.1391 27.0732 25.1644 26.1535C25.6869 25.6785 26.1703 25.1621 26.6099 24.6095C27.0439 24.0657 27.4358 23.4897 27.7824 22.8865C28.5101 21.6444 28.9676 20.2628 29.125 18.8319C29.2855 17.4196 29.1545 15.9893 28.7401 14.6296V14.6296Z" fill="url(#paint1_linear_146_201)"/>
</g>
<defs>
<linearGradient id="paint0_linear_146_201" x1="6.09083" y1="29.9709" x2="29.1251" y2="6.93674" gradientUnits="userSpaceOnUse">
<stop stop-color="#FFB200"/>
<stop offset="1" stop-color="#FC210D"/>
</linearGradient>
<linearGradient id="paint1_linear_146_201" x1="5.86707" y1="38.5142" x2="12.5621" y2="22.6493" gradientUnits="userSpaceOnUse">
<stop stop-color="#FFB200"/>
<stop offset="0.47" stop-color="white"/>
</linearGradient>
<clipPath id="clip0_146_201">
<rect width="201.53" height="40" fill="white"/>
</clipPath>
</defs>
</svg>
